<?xml version="1.0" standalone="no"?>
<!DOCTYPE svg PUBLIC "-//W3C//DTD SVG 20010904//EN"
 "http://www.w3.org/TR/2001/REC-SVG-20010904/DTD/svg10.dtd">
<svg version="1.0" xmlns="http://www.w3.org/2000/svg"
 width="1280.000000pt" height="1280.000000pt" viewBox="0 0 1280.000000 1280.000000"
 preserveAspectRatio="xMidYMid meet">
<metadata>
Created by potrace 1.14, written by Peter Selinger 2001-2017
</metadata>
<g transform="translate(0.000000,1280.000000) scale(0.100000,-0.100000)"
fill="#000000" stroke="none">
<path d="M6723 12072 c-49 -4 -76 -31 -95 -96 -14 -50 -25 -66 -47 -66 -9 0
-32 -10 -51 -23 -19 -13 -102 -52 -185 -87 -148 -63 -183 -80 -320 -157 -112
-62 -266 -170 -325 -227 -14 -13 -50 -30 -80 -37 -139 -35 -307 -189 -385
-354 -19 -40 -35 -79 -35 -87 0 -7 -13 -38 -29 -68 -322 -630 -391 -773 -441
-923 -26 -78 -41 -108 -74 -141 -238 -247 -283 -310 -344 -481 -21 -60 -25
-94 -29 -230 -5 -151 -4 -164 19 -230 33 -93 52 -122 136 -210 81 -84 85 -99
48 -173 -13 -26 -36 -78 -51 -117 -35 -90 -74 -170 -94 -192 -9 -10 -24 -35
-33 -55 -10 -21 -22 -38 -26 -38 -5 0 -14 -10 -19 -22 -6 -13 -18 -32 -27 -43
-9 -11 -26 -35 -39 -53 -17 -27 -37 -39 -97 -59 -80 -27 -153 -71 -219 -131
-55 -50 -168 -241 -177 -299 -8 -57 10 -113 47 -149 36 -35 36 -46 -1 -92 -16
-20 -45 -57 -65 -80 -57 -71 -41 -147 38 -183 37 -16 68 -19 257 -19 118 0
244 -5 280 -10 81 -13 241 -47 300 -66 25 -7 70 -20 100 -28 30 -8 88 -24 129
-36 41 -12 102 -27 135 -35 34 -7 97 -22 141 -33 44 -11 139 -32 210 -47 173
-36 205 -44 205 -54 0 -10 -78 -138 -100 -164 -10 -12 -35 -42 -55 -67 -20
-25 -86 -96 -147 -158 -100 -101 -117 -114 -167 -128 -31 -9 -75 -27 -99 -40
-23 -13 -58 -24 -76 -24 -19 0 -39 -7 -46 -15 -7 -8 -18 -15 -25 -15 -7 0 -18
-7 -25 -15 -6 -8 -67 -32 -133 -54 -201 -66 -254 -85 -447 -166 -307 -129
-432 -177 -595 -228 -103 -32 -407 -88 -420 -77 -7 6 -15 28 -19 49 -4 30 -26
62 -91 137 -47 54 -85 108 -85 119 0 11 12 61 25 110 45 160 29 342 -42 465
-14 25 -37 68 -50 95 -14 28 -35 61 -47 75 -32 35 -60 88 -80 147 -9 28 -27
62 -40 75 -12 12 -32 39 -43 58 -22 36 -88 100 -104 100 -5 0 -18 9 -29 20
-12 12 -45 36 -74 55 -84 54 -143 138 -165 237 -15 65 -15 532 -1 711 15 190
10 386 -12 419 -15 23 -123 101 -248 180 -60 38 -73 42 -160 50 -164 14 -257
-19 -361 -129 -71 -75 -106 -128 -153 -233 -73 -160 -85 -211 -140 -555 -24
-152 -102 -566 -159 -845 -40 -192 -65 -289 -91 -352 -55 -135 -83 -262 -101
-473 -11 -121 17 -271 75 -400 9 -22 21 -56 25 -75 4 -19 18 -69 31 -110 13
-41 32 -100 41 -130 34 -108 189 -385 290 -515 13 -16 27 -34 31 -40 4 -5 46
-62 92 -125 135 -185 187 -255 201 -271 8 -8 41 -48 74 -89 32 -41 66 -82 75
-91 8 -9 37 -45 65 -80 50 -64 204 -211 319 -303 33 -28 67 -56 75 -64 30 -30
281 -191 371 -239 165 -87 190 -104 255 -169 103 -103 137 -200 155 -439 19
-265 56 -467 125 -685 72 -226 192 -458 332 -644 68 -89 214 -256 224 -256 4
0 34 -23 66 -51 32 -28 157 -110 278 -182 183 -109 244 -140 360 -182 77 -28
151 -58 165 -67 14 -9 93 -37 175 -63 83 -26 213 -67 290 -92 77 -25 192 -58
255 -73 63 -15 183 -48 265 -73 362 -109 613 -158 910 -178 72 -4 195 -13 275
-18 433 -29 624 -34 809 -23 102 7 265 12 361 12 403 2 722 27 1002 79 57 11
191 33 298 51 260 41 468 90 682 161 98 33 191 59 208 59 17 0 79 15 138 34
113 37 284 85 497 142 100 27 155 48 240 95 153 83 195 116 224 175 13 27 45
69 70 94 25 25 55 56 65 70 22 28 166 192 176 200 13 11 140 170 140 175 0 4
14 27 31 52 38 55 130 248 154 323 10 30 24 68 33 85 25 50 77 315 88 457 6
65 13 93 35 128 64 106 110 276 129 480 8 75 22 155 37 200 49 151 83 304 83
376 0 129 -48 336 -98 426 -38 67 -73 116 -88 122 -8 3 -25 30 -39 60 -14 31
-41 68 -60 83 -19 15 -35 33 -35 40 0 38 -88 271 -153 404 -46 95 -78 177 -85
214 -6 33 -18 101 -26 150 -8 50 -20 119 -26 155 -45 270 -92 519 -119 635
-20 84 -30 120 -81 295 -11 36 -24 120 -30 187 -22 261 -90 440 -209 552 -68
63 -179 132 -351 218 -46 24 -68 28 -135 28 -44 0 -101 -7 -127 -14 l-47 -15
-43 45 c-46 47 -178 170 -220 205 -103 87 -261 168 -391 202 -88 23 -120 26
-237 25 -115 -2 -146 -6 -213 -27 -104 -35 -111 -34 -103 8 6 33 39 118 77
203 69 152 194 524 243 723 20 80 40 161 45 180 13 50 37 207 63 410 26 206
32 604 10 700 -17 74 -28 123 -42 195 -7 33 -23 94 -36 136 -23 77 -130 355
-144 374 -4 6 -31 55 -60 110 -29 55 -58 109 -64 120 -11 19 -83 129 -98 150
-4 6 -41 55 -82 110 -73 99 -280 317 -366 386 -101 80 -275 191 -465 296 -47
26 -107 53 -118 53 -7 0 -24 7 -39 14 -32 17 -165 65 -211 76 -18 5 -75 20
-128 33 -119 32 -231 55 -328 69 -68 9 -784 18 -888 10z"/>
</g>
</svg>
